<svg width="186" height="49" viewBox="0 0 186 49" fill="none" xmlns="http://www.w3.org/2000/svg">
<path d="M7.60849 17.3375C7.43727 18.3101 7.34871 19.1714 7.34871 20.0386C7.34871 23.1146 7.31328 26.1966 7.36052 29.2726C7.40775 32.2491 8.24024 34.9912 10.1886 37.3173C12.568 40.159 15.7091 41.53 19.3697 41.6707C23.0893 41.8171 26.8149 41.8523 30.5286 41.6414C36.7398 41.2957 41.6108 36.5322 41.971 30.38C42.2012 26.4426 42.2071 22.4936 41.971 18.5562C41.6108 12.6091 36.8579 7.83973 30.8474 7.43545C26.7204 7.16007 22.5697 7.18936 18.4427 7.45889C17.5984 7.51748 17.2382 7.29483 16.8545 6.62102C15.7799 4.7578 14.6345 2.92974 13.5009 1.10167C13.2765 0.744261 13.2588 0.597781 13.743 0.504034C14.9002 0.287244 16.0574 0.0763137 17.2323 0.0704545C22.3513 0.0587361 27.4761 -0.11118 32.5774 0.123187C41.4042 0.53333 47.8693 6.40423 49.1682 14.8942C49.3394 16.0074 49.4162 17.1265 49.4103 18.2515C49.3985 22.81 49.5224 27.3684 49.363 31.921C49.0383 40.9441 42.9983 47.5006 34.325 48.7486C33.2564 48.9009 32.1936 48.9771 31.1131 48.9712C26.6141 48.9654 22.1092 49.0532 17.6161 48.9478C12.0248 48.8189 7.26014 46.8033 3.74124 42.3562C1.23785 39.1864 0.0924388 35.5068 0.0452052 31.5226C-0.0138369 26.6712 -0.0256446 21.8139 0.0747269 16.9625C0.139673 13.5876 1.06073 10.3826 3.07997 7.64052C4.1073 6.25189 5.55973 5.20896 7.54354 5.50192C8.57678 5.65426 9.40927 6.13471 10.0646 6.93742C14.4397 12.2576 18.8206 17.5718 23.2015 22.8861C23.6148 23.39 24.0281 23.8998 24.4414 24.4036C26.1772 26.513 26.0001 29.2433 24.0222 30.8253C22.0679 32.3897 19.1335 32.0147 17.4803 29.9406C15.4965 27.4504 13.554 24.9251 11.5938 22.4115C10.2949 20.7475 8.99008 19.0835 7.6144 17.3199L7.60849 17.3375Z" fill="#2567CC"/>
<path d="M24.7039 17.2739C22.6257 17.2739 21.0435 15.6978 21.0435 13.6355C21.0435 11.6201 22.6493 10.0264 24.6744 10.0147C26.7585 10.003 28.382 11.6201 28.3702 13.6941C28.3584 15.7037 26.7466 17.2739 24.7039 17.2739Z" fill="#FFE600"/>
<path d="M56.0475 21.2212C55.8531 21.2212 55.703 21.1689 55.597 21.0642C55.491 20.9421 55.438 20.7938 55.438 20.6194V3.53319C55.438 3.34131 55.491 3.19303 55.597 3.08837C55.703 2.96626 55.8531 2.90521 56.0475 2.90521H57.2664C57.4784 2.90521 57.6374 2.95754 57.7434 3.06221C57.8494 3.14943 57.9112 3.2192 57.9289 3.27153L66.7265 16.616V3.53319C66.7265 3.34131 66.7795 3.19303 66.8855 3.08837C66.9915 2.96626 67.1416 2.90521 67.336 2.90521H68.6079C68.8022 2.90521 68.9524 2.96626 69.0584 3.08837C69.1821 3.19303 69.2439 3.34131 69.2439 3.53319V20.5932C69.2439 20.7677 69.1821 20.9159 69.0584 21.038C68.9524 21.1601 68.8111 21.2212 68.6344 21.2212H67.3625C67.1681 21.2212 67.018 21.1689 66.912 21.0642C66.8237 20.9595 66.7618 20.8898 66.7265 20.8549L57.9554 7.6412V20.6194C57.9554 20.7938 57.8935 20.9421 57.7699 21.0642C57.6639 21.1689 57.5137 21.2212 57.3194 21.2212H56.0475Z" fill="#656060"/>
<path d="M80.4883 21.4829C78.9867 21.4829 77.6971 21.2299 76.6195 20.724C75.5419 20.2007 74.7116 19.407 74.1286 18.343C73.5456 17.2615 73.2188 15.9096 73.1481 14.2873C73.1305 13.5198 73.1216 12.7871 73.1216 12.0894C73.1216 11.3742 73.1305 10.6328 73.1481 9.86529C73.2188 8.26046 73.5544 6.92601 74.1551 5.86194C74.7734 4.78042 75.6213 3.978 76.699 3.45469C77.7943 2.91393 79.0574 2.64355 80.4883 2.64355C81.9369 2.64355 83.2 2.91393 84.2776 3.45469C85.3729 3.978 86.2297 4.78042 86.848 5.86194C87.4663 6.92601 87.802 8.26046 87.855 9.86529C87.8903 10.6328 87.908 11.3742 87.908 12.0894C87.908 12.7871 87.8903 13.5198 87.855 14.2873C87.802 15.9096 87.4752 17.2615 86.8745 18.343C86.2916 19.407 85.4613 20.2007 84.3836 20.724C83.306 21.2299 82.0076 21.4829 80.4883 21.4829ZM80.4883 19.2588C81.8486 19.2588 82.9527 18.8576 83.8007 18.0551C84.6663 17.2527 85.1344 15.9532 85.2051 14.1565C85.2404 13.3715 85.2581 12.6737 85.2581 12.0632C85.2581 11.4352 85.2404 10.7375 85.2051 9.96995C85.1698 8.76633 84.9401 7.78947 84.5161 7.03939C84.1098 6.28931 83.5622 5.73983 82.8732 5.39095C82.1842 5.04208 81.3893 4.86764 80.4883 4.86764C79.6227 4.86764 78.8454 5.04208 78.1564 5.39095C77.4674 5.73983 76.911 6.28931 76.487 7.03939C76.0807 7.78947 75.851 8.76633 75.798 9.96995C75.7803 10.7375 75.7715 11.4352 75.7715 12.0632C75.7715 12.6737 75.7803 13.3715 75.798 14.1565C75.8687 15.9532 76.3368 17.2527 77.2024 18.0551C78.0681 18.8576 79.1634 19.2588 80.4883 19.2588Z" fill="#656060"/>
<path d="M96.7646 21.2212C96.4996 21.2212 96.2876 21.1601 96.1286 21.038C95.9873 20.9159 95.8725 20.7502 95.7841 20.5409L89.8749 3.71635C89.8396 3.61169 89.8219 3.51575 89.8219 3.42853C89.8219 3.28898 89.8749 3.16687 89.9809 3.06221C90.0869 2.95754 90.2106 2.90521 90.3519 2.90521H91.7298C91.9418 2.90521 92.1008 2.96626 92.2068 3.08837C92.3305 3.19303 92.4011 3.28898 92.4188 3.37619L97.6126 18.2121L102.806 3.37619C102.842 3.28898 102.912 3.19303 103.018 3.08837C103.124 2.96626 103.283 2.90521 103.495 2.90521H104.873C105.015 2.90521 105.138 2.95754 105.244 3.06221C105.368 3.16687 105.43 3.28898 105.43 3.42853C105.43 3.51575 105.412 3.61169 105.377 3.71635L99.441 20.5409C99.3703 20.7502 99.2555 20.9159 99.0965 21.038C98.9552 21.1601 98.752 21.2212 98.487 21.2212H96.7646Z" fill="#656060"/>
<path d="M106.052 21.2212C105.91 21.2212 105.787 21.1689 105.681 21.0642C105.575 20.9595 105.522 20.8374 105.522 20.6979C105.522 20.6107 105.53 20.5147 105.548 20.4101L112.12 3.48086C112.191 3.30642 112.288 3.16687 112.411 3.06221C112.535 2.95754 112.72 2.90521 112.968 2.90521H114.77C114.999 2.90521 115.176 2.95754 115.3 3.06221C115.441 3.16687 115.547 3.30642 115.618 3.48086L122.163 20.4101C122.198 20.5147 122.216 20.6107 122.216 20.6979C122.216 20.8374 122.163 20.9595 122.057 21.0642C121.951 21.1689 121.827 21.2212 121.686 21.2212H120.335C120.123 21.2212 119.964 21.1689 119.858 21.0642C119.769 20.9595 119.707 20.8636 119.672 20.7764L118.215 17.0609H109.523L108.066 20.7764C108.048 20.8636 107.986 20.9595 107.88 21.0642C107.774 21.1689 107.615 21.2212 107.403 21.2212H106.052ZM110.291 14.8106H117.446L113.869 5.52178L110.291 14.8106Z" fill="#656060"/>
<path d="M127.746 21.2212C127.57 21.2212 127.419 21.1689 127.296 21.0642C127.19 20.9421 127.137 20.7938 127.137 20.6194V5.23396H122.049C121.872 5.23396 121.722 5.18163 121.599 5.07696C121.493 4.95486 121.44 4.80659 121.44 4.63215V3.53319C121.44 3.34131 121.493 3.19303 121.599 3.08837C121.722 2.96626 121.872 2.90521 122.049 2.90521H134.822C135.016 2.90521 135.166 2.96626 135.272 3.08837C135.396 3.19303 135.457 3.34131 135.457 3.53319V4.63215C135.457 4.80659 135.396 4.95486 135.272 5.07696C135.166 5.18163 135.016 5.23396 134.822 5.23396H129.76V20.6194C129.76 20.7938 129.698 20.9421 129.575 21.0642C129.469 21.1689 129.319 21.2212 129.124 21.2212H127.746Z" fill="#656060"/>
<path d="M144.691 21.4829C143.189 21.4829 141.9 21.2299 140.822 20.724C139.745 20.2007 138.914 19.407 138.331 18.343C137.748 17.2615 137.422 15.9096 137.351 14.2873C137.333 13.5198 137.324 12.7871 137.324 12.0894C137.324 11.3742 137.333 10.6328 137.351 9.86529C137.422 8.26046 137.757 6.92601 138.358 5.86194C138.976 4.78042 139.824 3.978 140.902 3.45469C141.997 2.91393 143.26 2.64355 144.691 2.64355C146.14 2.64355 147.403 2.91393 148.48 3.45469C149.576 3.978 150.433 4.78042 151.051 5.86194C151.669 6.92601 152.005 8.26046 152.058 9.86529C152.093 10.6328 152.111 11.3742 152.111 12.0894C152.111 12.7871 152.093 13.5198 152.058 14.2873C152.005 15.9096 151.678 17.2615 151.077 18.343C150.494 19.407 149.664 20.2007 148.586 20.724C147.509 21.2299 146.21 21.4829 144.691 21.4829ZM144.691 19.2588C146.051 19.2588 147.155 18.8576 148.003 18.0551C148.869 17.2527 149.337 15.9532 149.408 14.1565C149.443 13.3715 149.461 12.6737 149.461 12.0632C149.461 11.4352 149.443 10.7375 149.408 9.96995C149.373 8.76633 149.143 7.78947 148.719 7.03939C148.313 6.28931 147.765 5.73983 147.076 5.39095C146.387 5.04208 145.592 4.86764 144.691 4.86764C143.825 4.86764 143.048 5.04208 142.359 5.39095C141.67 5.73983 141.114 6.28931 140.69 7.03939C140.283 7.78947 140.054 8.76633 140.001 9.96995C139.983 10.7375 139.974 11.4352 139.974 12.0632C139.974 12.6737 139.983 13.3715 140.001 14.1565C140.071 15.9532 140.54 17.2527 141.405 18.0551C142.271 18.8576 143.366 19.2588 144.691 19.2588Z" fill="#656060"/>
<path d="M156.583 21.2212C156.388 21.2212 156.238 21.1689 156.132 21.0642C156.026 20.9421 155.973 20.7938 155.973 20.6194V3.53319C155.973 3.34131 156.026 3.19303 156.132 3.08837C156.238 2.96626 156.388 2.90521 156.583 2.90521H163.048C165.045 2.90521 166.626 3.36747 167.792 4.29199C168.958 5.21651 169.541 6.58585 169.541 8.40001C169.541 9.74318 169.196 10.8421 168.507 11.6969C167.836 12.5342 166.917 13.1186 165.751 13.45L169.832 20.4101C169.885 20.5147 169.912 20.6107 169.912 20.6979C169.912 20.8374 169.85 20.9595 169.726 21.0642C169.62 21.1689 169.496 21.2212 169.355 21.2212H168.083C167.783 21.2212 167.562 21.1427 167.421 20.9857C167.279 20.8287 167.156 20.6717 167.05 20.5147L163.207 13.8686H158.57V20.6194C158.57 20.7938 158.508 20.9421 158.385 21.0642C158.279 21.1689 158.128 21.2212 157.934 21.2212H156.583ZM158.57 11.6446H162.942C164.267 11.6446 165.257 11.3742 165.91 10.8334C166.564 10.2752 166.891 9.45536 166.891 8.37384C166.891 7.30977 166.564 6.49863 165.91 5.94043C165.274 5.38223 164.285 5.10313 162.942 5.10313H158.57V11.6446Z" fill="#656060"/>
<path d="M173.947 21.2212C173.752 21.2212 173.602 21.1689 173.496 21.0642C173.39 20.9421 173.337 20.7938 173.337 20.6194V3.53319C173.337 3.34131 173.39 3.19303 173.496 3.08837C173.602 2.96626 173.752 2.90521 173.947 2.90521H184.891C185.085 2.90521 185.235 2.96626 185.341 3.08837C185.447 3.19303 185.5 3.34131 185.5 3.53319V4.52749C185.5 4.71937 185.447 4.86764 185.341 4.9723C185.235 5.07696 185.085 5.1293 184.891 5.1293H175.881V10.8596H184.308C184.502 10.8596 184.652 10.9206 184.758 11.0427C184.864 11.1474 184.917 11.2957 184.917 11.4876V12.4557C184.917 12.6301 184.864 12.7784 184.758 12.9005C184.652 13.0052 184.502 13.0575 184.308 13.0575H175.881V18.9971H185.103C185.297 18.9971 185.447 19.0494 185.553 19.1541C185.659 19.2588 185.712 19.407 185.712 19.5989V20.6194C185.712 20.7938 185.659 20.9421 185.553 21.0642C185.447 21.1689 185.297 21.2212 185.103 21.2212H173.947Z" fill="#656060"/>
<path d="M62.0665 46.3541C60.6426 46.3541 59.4478 46.1376 58.4822 45.7047C57.5165 45.2551 56.7719 44.6806 56.2481 43.9813C55.7408 43.2653 55.4707 42.5077 55.438 41.7085C55.438 41.5753 55.4871 41.4587 55.5853 41.3588C55.6999 41.2422 55.8308 41.184 55.9781 41.184H57.2301C57.4265 41.184 57.5738 41.2339 57.672 41.3338C57.7702 41.4337 57.8357 41.5503 57.8684 41.6835C57.9503 42.0831 58.1467 42.4827 58.4576 42.8824C58.785 43.2653 59.235 43.59 59.8079 43.8564C60.3971 44.1062 61.1499 44.2311 62.0665 44.2311C63.474 44.2311 64.5051 43.9813 65.1597 43.4818C65.8308 42.9656 66.1663 42.2829 66.1663 41.4337C66.1663 40.8509 65.9863 40.3847 65.6262 40.035C65.2825 39.6687 64.7506 39.344 64.0304 39.061C63.3103 38.7779 62.3774 38.4699 61.2318 38.1368C60.037 37.7872 59.0468 37.4042 58.2612 36.9879C57.4756 36.5717 56.8864 36.0555 56.4936 35.4394C56.1172 34.8233 55.929 34.0407 55.929 33.0916C55.929 32.1925 56.1663 31.3932 56.6409 30.6939C57.1156 29.9779 57.7948 29.4118 58.6786 28.9955C59.5787 28.5792 60.6671 28.3711 61.9437 28.3711C62.9584 28.3711 63.8422 28.5126 64.5951 28.7957C65.3643 29.0621 66.0026 29.4284 66.51 29.8947C67.0174 30.3442 67.402 30.8354 67.6638 31.3683C67.9257 31.8844 68.0648 32.3923 68.0812 32.8918C68.0812 33.0084 68.0403 33.1249 67.9584 33.2415C67.8766 33.3414 67.7457 33.3913 67.5656 33.3913H66.2645C66.1499 33.3913 66.0272 33.358 65.8962 33.2914C65.7817 33.2248 65.6917 33.0999 65.6262 32.9168C65.528 32.2341 65.1516 31.6596 64.4969 31.1934C63.8422 30.7272 62.9912 30.4941 61.9437 30.4941C60.8799 30.4941 60.0124 30.7022 59.3414 31.1185C58.6868 31.5348 58.3594 32.1841 58.3594 33.0666C58.3594 33.6328 58.5149 34.1073 58.8259 34.4903C59.1368 34.8566 59.6278 35.1813 60.2989 35.4644C60.9699 35.7474 61.8455 36.0472 62.9257 36.3635C64.235 36.7298 65.307 37.1211 66.1417 37.5374C66.9764 37.937 67.5902 38.4449 67.983 39.061C68.3921 39.6604 68.5967 40.4347 68.5967 41.3838C68.5967 42.4328 68.3267 43.3319 67.7866 44.0812C67.2465 44.8139 66.4854 45.38 65.5034 45.7796C64.5378 46.1626 63.3922 46.3541 62.0665 46.3541Z" fill="#656060"/>
<path d="M77.9765 46.3541C76.5853 46.3541 75.3906 46.1126 74.3922 45.6297C73.3939 45.1302 72.6246 44.3726 72.0845 43.3569C71.5444 42.3245 71.2417 41.0341 71.1762 39.4856C71.1598 38.7529 71.1516 38.0536 71.1516 37.3876C71.1516 36.7049 71.1598 35.9972 71.1762 35.2646C71.2417 33.7327 71.5526 32.4589 72.1091 31.4432C72.6819 30.4108 73.4675 29.6449 74.4659 29.1454C75.4806 28.6292 76.6508 28.3711 77.9765 28.3711C79.3186 28.3711 80.4888 28.6292 81.4871 29.1454C82.5019 29.6449 83.2956 30.4108 83.8685 31.4432C84.4413 32.4589 84.7523 33.7327 84.8014 35.2646C84.8341 35.9972 84.8505 36.7049 84.8505 37.3876C84.8505 38.0536 84.8341 38.7529 84.8014 39.4856C84.7523 41.0341 84.4495 42.3245 83.893 43.3569C83.3529 44.3726 82.5837 45.1302 81.5853 45.6297C80.587 46.1126 79.384 46.3541 77.9765 46.3541ZM77.9765 44.2311C79.2367 44.2311 80.2596 43.8481 81.0452 43.0822C81.8472 42.3162 82.2809 41.0757 82.3464 39.3607C82.3791 38.6114 82.3955 37.9454 82.3955 37.3626C82.3955 36.7631 82.3791 36.0971 82.3464 35.3645C82.3137 34.2156 82.1009 33.2831 81.7081 32.5671C81.3317 31.8511 80.8243 31.3266 80.186 30.9936C79.5477 30.6606 78.8112 30.4941 77.9765 30.4941C77.1745 30.4941 76.4544 30.6606 75.8161 30.9936C75.1778 31.3266 74.6623 31.8511 74.2695 32.5671C73.893 33.2831 73.6803 34.2156 73.6312 35.3645C73.6148 36.0971 73.6066 36.7631 73.6066 37.3626C73.6066 37.9454 73.6148 38.6114 73.6312 39.3607C73.6966 41.0757 74.1304 42.3162 74.9323 43.0822C75.7343 43.8481 76.749 44.2311 77.9765 44.2311Z" fill="#656060"/>
<path d="M88.9935 46.1043C88.8134 46.1043 88.6743 46.0543 88.5761 45.9544C88.4779 45.8379 88.4288 45.6964 88.4288 45.5298V29.1953C88.4288 29.0288 88.4779 28.8956 88.5761 28.7957C88.6743 28.6791 88.8134 28.6209 88.9935 28.6209H90.2946C90.4583 28.6209 90.5892 28.6791 90.6874 28.7957C90.7856 28.8956 90.8347 29.0288 90.8347 29.1953V43.9314H99.0098C99.1898 43.9314 99.329 43.9896 99.4272 44.1062C99.5254 44.2061 99.5745 44.3476 99.5745 44.5308V45.5298C99.5745 45.6964 99.5254 45.8379 99.4272 45.9544C99.329 46.0543 99.1898 46.1043 99.0098 46.1043H88.9935Z" fill="#656060"/>
<path d="M108.336 46.3541C106.961 46.3541 105.774 46.1043 104.776 45.6048C103.794 45.1052 103.033 44.3476 102.493 43.3319C101.969 42.2996 101.707 40.9758 101.707 39.3607V29.2203C101.707 29.0371 101.756 28.8956 101.855 28.7957C101.953 28.6791 102.092 28.6209 102.272 28.6209H103.524C103.704 28.6209 103.843 28.6791 103.941 28.7957C104.056 28.8956 104.113 29.0371 104.113 29.2203V39.4106C104.113 41.0424 104.49 42.2496 105.242 43.0322C105.995 43.8148 107.026 44.2061 108.336 44.2061C109.629 44.2061 110.652 43.8148 111.404 43.0322C112.174 42.2496 112.558 41.0424 112.558 39.4106V29.2203C112.558 29.0371 112.607 28.8956 112.706 28.7957C112.82 28.6791 112.959 28.6209 113.123 28.6209H114.4C114.563 28.6209 114.694 28.6791 114.792 28.7957C114.907 28.8956 114.964 29.0371 114.964 29.2203V39.3607C114.964 40.9758 114.694 42.2996 114.154 43.3319C113.63 44.3476 112.877 45.1052 111.895 45.6048C110.913 46.1043 109.727 46.3541 108.336 46.3541Z" fill="#656060"/>
<path d="M123.389 46.1043C123.225 46.1043 123.086 46.0543 122.972 45.9544C122.873 45.8379 122.824 45.6964 122.824 45.5298V30.8438H118.111C117.947 30.8438 117.808 30.7938 117.693 30.6939C117.595 30.5773 117.546 30.4358 117.546 30.2693V29.2203C117.546 29.0371 117.595 28.8956 117.693 28.7957C117.808 28.6791 117.947 28.6209 118.111 28.6209H129.944C130.124 28.6209 130.263 28.6791 130.361 28.7957C130.476 28.8956 130.533 29.0371 130.533 29.2203V30.2693C130.533 30.4358 130.476 30.5773 130.361 30.6939C130.263 30.7938 130.124 30.8438 129.944 30.8438H125.255V45.5298C125.255 45.6964 125.197 45.8379 125.083 45.9544C124.985 46.0543 124.846 46.1043 124.666 46.1043H123.389Z" fill="#656060"/>
<path d="M133.85 46.1043C133.67 46.1043 133.531 46.0543 133.432 45.9544C133.334 45.8379 133.285 45.6964 133.285 45.5298V29.1953C133.285 29.0288 133.334 28.8956 133.432 28.7957C133.531 28.6791 133.67 28.6209 133.85 28.6209H135.151C135.315 28.6209 135.445 28.6791 135.544 28.7957C135.658 28.8956 135.716 29.0288 135.716 29.1953V45.5298C135.716 45.6964 135.658 45.8379 135.544 45.9544C135.445 46.0543 135.315 46.1043 135.151 46.1043H133.85Z" fill="#656060"/>
<path d="M146.16 46.3541C144.769 46.3541 143.574 46.1126 142.576 45.6297C141.577 45.1302 140.808 44.3726 140.268 43.3569C139.728 42.3245 139.425 41.0341 139.36 39.4856C139.343 38.7529 139.335 38.0536 139.335 37.3876C139.335 36.7049 139.343 35.9972 139.36 35.2646C139.425 33.7327 139.736 32.4589 140.293 31.4432C140.865 30.4108 141.651 29.6449 142.649 29.1454C143.664 28.6292 144.834 28.3711 146.16 28.3711C147.502 28.3711 148.672 28.6292 149.671 29.1454C150.685 29.6449 151.479 30.4108 152.052 31.4432C152.625 32.4589 152.936 33.7327 152.985 35.2646C153.018 35.9972 153.034 36.7049 153.034 37.3876C153.034 38.0536 153.018 38.7529 152.985 39.4856C152.936 41.0341 152.633 42.3245 152.076 43.3569C151.536 44.3726 150.767 45.1302 149.769 45.6297C148.77 46.1126 147.567 46.3541 146.16 46.3541ZM146.16 44.2311C147.42 44.2311 148.443 43.8481 149.229 43.0822C150.031 42.3162 150.464 41.0757 150.53 39.3607C150.563 38.6114 150.579 37.9454 150.579 37.3626C150.579 36.7631 150.563 36.0971 150.53 35.3645C150.497 34.2156 150.284 33.2831 149.892 32.5671C149.515 31.8511 149.008 31.3266 148.369 30.9936C147.731 30.6606 146.995 30.4941 146.16 30.4941C145.358 30.4941 144.638 30.6606 144 30.9936C143.361 31.3266 142.846 31.8511 142.453 32.5671C142.076 33.2831 141.864 34.2156 141.815 35.3645C141.798 36.0971 141.79 36.7631 141.79 37.3626C141.79 37.9454 141.798 38.6114 141.815 39.3607C141.88 41.0757 142.314 42.3162 143.116 43.0822C143.918 43.8481 144.932 44.2311 146.16 44.2311Z" fill="#656060"/>
<path d="M157.177 46.1043C156.997 46.1043 156.858 46.0543 156.76 45.9544C156.661 45.8379 156.612 45.6964 156.612 45.5298V29.2203C156.612 29.0371 156.661 28.8956 156.76 28.7957C156.858 28.6791 156.997 28.6209 157.177 28.6209H158.306C158.503 28.6209 158.65 28.6708 158.748 28.7707C158.846 28.854 158.904 28.9206 158.92 28.9705L167.071 41.7085V29.2203C167.071 29.0371 167.12 28.8956 167.218 28.7957C167.316 28.6791 167.455 28.6209 167.635 28.6209H168.814C168.994 28.6209 169.133 28.6791 169.231 28.7957C169.345 28.8956 169.403 29.0371 169.403 29.2203V45.5049C169.403 45.6714 169.345 45.8129 169.231 45.9295C169.133 46.046 169.002 46.1043 168.838 46.1043H167.66C167.48 46.1043 167.341 46.0543 167.242 45.9544C167.161 45.8545 167.103 45.7879 167.071 45.7546L158.945 33.1416V45.5298C158.945 45.6964 158.887 45.8379 158.773 45.9544C158.674 46.0543 158.535 46.1043 158.355 46.1043H157.177Z" fill="#656060"/>
<path d="M179.182 46.3541C177.758 46.3541 176.563 46.1376 175.598 45.7047C174.632 45.2551 173.887 44.6806 173.364 43.9813C172.856 43.2653 172.586 42.5077 172.553 41.7085C172.553 41.5753 172.602 41.4587 172.701 41.3588C172.815 41.2422 172.946 41.184 173.093 41.184H174.346C174.542 41.184 174.689 41.2339 174.787 41.3338C174.886 41.4337 174.951 41.5503 174.984 41.6835C175.066 42.0831 175.262 42.4827 175.573 42.8824C175.9 43.2653 176.35 43.59 176.923 43.8564C177.512 44.1062 178.265 44.2311 179.182 44.2311C180.589 44.2311 181.62 43.9813 182.275 43.4818C182.946 42.9656 183.282 42.2829 183.282 41.4337C183.282 40.8509 183.102 40.3847 182.742 40.035C182.398 39.6687 181.866 39.344 181.146 39.061C180.426 38.7779 179.493 38.4699 178.347 38.1368C177.152 37.7872 176.162 37.4042 175.377 36.9879C174.591 36.5717 174.002 36.0555 173.609 35.4394C173.233 34.8233 173.044 34.0407 173.044 33.0916C173.044 32.1925 173.282 31.3932 173.756 30.6939C174.231 29.9779 174.91 29.4118 175.794 28.9955C176.694 28.5792 177.783 28.3711 179.059 28.3711C180.074 28.3711 180.958 28.5126 181.711 28.7957C182.48 29.0621 183.118 29.4284 183.625 29.8947C184.133 30.3442 184.517 30.8354 184.779 31.3683C185.041 31.8844 185.18 32.3923 185.197 32.8918C185.197 33.0084 185.156 33.1249 185.074 33.2415C184.992 33.3414 184.861 33.3913 184.681 33.3913H183.38C183.265 33.3913 183.143 33.358 183.012 33.2914C182.897 33.2248 182.807 33.0999 182.742 32.9168C182.643 32.2341 182.267 31.6596 181.612 31.1934C180.958 30.7272 180.107 30.4941 179.059 30.4941C177.995 30.4941 177.128 30.7022 176.457 31.1185C175.802 31.5348 175.475 32.1841 175.475 33.0666C175.475 33.6328 175.63 34.1073 175.941 34.4903C176.252 34.8566 176.743 35.1813 177.414 35.4644C178.085 35.7474 178.961 36.0472 180.041 36.3635C181.35 36.7298 182.422 37.1211 183.257 37.5374C184.092 37.937 184.706 38.4449 185.098 39.061C185.508 39.6604 185.712 40.4347 185.712 41.3838C185.712 42.4328 185.442 43.3319 184.902 44.0812C184.362 44.8139 183.601 45.38 182.619 45.7796C181.653 46.1626 180.508 46.3541 179.182 46.3541Z" fill="#656060"/>
</svg>
